<svg width="514" height="304" viewBox="0 0 514 304" fill="none" xmlns="http://www.w3.org/2000/svg">
<g clip-path="url(#clip0_4_3)">
<path d="M129.952 1.84727C129.251 2.54658 128.75 6.14307 128.75 11.0383V18.9306L135.062 25.0246C138.469 28.4213 150.292 39.5104 161.213 49.6006C172.235 59.7906 181.753 68.6819 182.455 69.2813C183.156 69.9807 184.459 70.5801 185.26 70.5801C186.663 70.5801 186.863 66.8837 186.863 36.8131C186.863 11.8375 186.563 2.74639 185.661 1.84727C184.759 0.948146 177.245 0.648438 157.807 0.648438C138.369 0.648438 130.854 0.948146 129.952 1.84727Z" fill="#303030"/>
<path d="M206.101 1.84725C205.199 2.74637 204.898 29.4203 204.898 119.632C204.898 232.322 204.999 236.318 206.802 237.617C209.107 239.215 255.397 239.415 257 237.817C257.701 237.117 257.902 195.458 257.802 118.933L257.501 1.14793L232.452 0.848226C213.716 0.648422 207.003 0.948129 206.101 1.84725Z" fill="#303030"/>
<path d="M277.039 2.54652C275.937 4.74437 275.837 218.336 276.939 230.923L277.54 237.916L302.489 238.216C320.023 238.416 327.838 238.116 328.74 237.317C329.942 236.318 330.143 217.337 330.143 120.331C330.143 42.4076 329.842 3.84525 329.141 2.54652C328.139 0.748276 326.736 0.648374 303.09 0.648374C279.444 0.648374 278.041 0.748276 277.039 2.54652Z" fill="#303030"/>
<path d="M65.9275 36.3135C52.2008 48.9012 33.865 65.6848 25.0479 73.677C16.2307 81.7691 7.11289 90.061 4.8084 92.2588L0.5 96.2549V166.286C0.5 235.918 0.5 236.318 2.6041 237.717C4.30742 238.915 8.81621 239.115 28.2541 238.716C41.2795 238.516 52.301 238.116 52.802 237.817C53.2027 237.517 53.6035 227.227 53.6035 214.839V192.461H93.6816H133.76V214.839C133.76 231.123 134.06 237.517 134.962 238.016C136.866 239.215 184.058 238.516 185.561 237.217C186.563 236.418 186.863 222.232 186.863 165.987V95.7554L176.643 86.2647C170.932 81.1697 154.901 66.3841 140.874 53.4967C96.5873 12.8365 97.5893 13.6357 93.9822 13.6357C91.1768 13.6357 87.5697 16.5328 65.9275 36.3135ZM105.304 89.7613C111.416 95.4557 120.233 103.548 125.043 107.943L133.76 115.736V127.624V139.513H104.403C88.1709 139.513 70.1357 139.213 64.3244 138.813L53.6035 138.214V126.925V115.736L73.4422 97.7535C84.2633 87.8631 93.3811 79.6711 93.6816 79.6711C93.9822 79.5712 99.1924 84.1667 105.304 89.7613Z" fill="#303030"/>
<path d="M349.38 66.7838C348.478 67.6829 348.178 82.7682 348.178 128.424C348.178 161.791 348.579 189.464 348.979 189.963C349.38 190.563 359.299 200.054 371.122 210.943L392.664 230.923L424.426 230.524C441.86 230.424 457.09 230.524 458.292 230.923C460.096 231.423 460.396 232.322 460.396 236.818C460.396 241.913 460.296 242.112 454.886 246.808L449.375 251.603L407.694 251.503C380.841 251.403 365.411 251.803 364.109 252.402C362.305 253.401 362.205 254.8 362.205 277.178C362.205 294.361 362.506 301.255 363.407 302.154C364.309 303.053 377.234 303.353 415.509 303.353H466.308L472.721 297.558C500.976 272.283 510.194 263.891 511.797 262.193C513.4 260.295 513.5 254.201 513.5 164.089C513.5 90.6605 513.199 67.6829 512.298 66.7838C510.494 64.9856 463.102 65.0855 461.499 66.8837C460.697 67.8827 460.296 84.7662 460.196 123.628L459.896 178.974L435.548 179.274L411.201 179.474L405.59 174.279L400.079 168.984L400.379 118.234C400.78 73.9768 400.58 67.3832 399.277 66.584C396.973 65.0855 350.883 65.2853 349.38 66.7838Z" fill="#303030"/>
</g>
<defs>
<clipPath id="clip0_4_3">
<rect width="514" height="304" fill="white"/>
</clipPath>
</defs>
</svg>
